{"title":"DJ CoNE - Ataque Ochentoso Vol 4","uid":3377643,"size":113620934,"categoryP":"audio","categoryS":"music","magnet":"?xt=urn:btih:923fc43df2ecbfe54efaa8d25ffbfe233ed3cadf&amp;dn=DJ+CoNE+-+Ataque+Ochentoso+Vol+4&amp;tr=udp%3A%2F%2Ftracker.openbittorrent.com%3A80&amp;tr=udp%3A%2F%2Fopen.demonii.com%3A1337&amp;tr=udp%3A%2F%2Ftracker.coppersurfer.tk%3A6969&amp;tr=udp%3A%2F%2Fexodus.desync.com%3A6969","seeders":0,"leechers":1,"uploader":"benitomdq","files":2,"time":1125598049,"description":"PERFORMER  DJ CoNE \nTITLE  Ataque Ochentoso Vol 4 \nFILE  DJ CoNE - Ataque Ochentoso Vol 4.mp3  MP3\n  TRACK 01 AUDIO\n    TITLE  Erasure - When I needed you \n    INDEX 01 00:00:00\n  TRACK 02 AUDIO\n    TITLE  Adamski - Back to the front (The rub it vocal mix) \n    INDEX 01 03:30:47\n  TRACK 03 AUDIO\n    TITLE  Code 61 - Drop the deal (Original mix) \n    INDEX 01 06:03:07\n  TRACK 04 AUDIO\n    TITLE  Boytronic - Bryllyant (33 1/3 plus 8 remix) \n    INDEX 01 09:11:72\n  TRACK 05 AUDIO\n    TITLE  The Maxx - Cocaine (12' version) \n    INDEX 01 12:21:27\n  TRACK 06 AUDIO\n    TITLE  Dirty Harry - D'Bop (12 inch) \n    INDEX 01 14:47:38\n  TRACK 07 AUDIO\n    TITLE  Erasure - Sometimes (Erasure and Flood mix) \n    INDEX 01 18:51:57\n  TRACK 08 AUDIO\n    TITLE  Pet Shop Boys - Domino Dancing (Disco mix) \n    INDEX 01 20:54:13\n  TRACK 09 AUDIO\n    TITLE  Erasure - Victim of love (Extended mix) \n    INDEX 01 27:01:04\n  TRACK 10 AUDIO\n    TITLE  Depeche Mode - Enjoy the silence (Hands and feety mix) \n    INDEX 01 32:01:04\n  TRACK 11 AUDIO\n    TITLE  MARRS - Pump up the volume (Extended club ultra mix) \n    INDEX 01 36:54:66\n  TRACK 12 AUDIO\n    TITLE  Depeche Mode - Strangelove (Pain mix) \n    INDEX 01 42:35:67\n  TRACK 13 AUDIO\n    TITLE  Nitzer Ebb - Join in the chant (Gold!) \n    INDEX 01 46:13:48\n  TRACK 14 AUDIO\n    TITLE  New Order - Bizarre Love Triangle (Remix) \n    INDEX 01 51:04:19\n  TRACK 15 AUDIO\n    TITLE  Erasure - A little respect (12 inch remix) \n    INDEX 01 55:02:42\n  TRACK 16 AUDIO\n    TITLE  Pet Shop Boys - West end girls (Dance mix) \n    INDEX 01 58:41:01\n  TRACK 17 AUDIO\n    TITLE  Information Society - Walking Away (Mix) \n    INDEX 01 61:30:36\n  TRACK 18 AUDIO\n    TITLE  Cetu Javu - Have in mind (Kalimba mix) \n    INDEX 01 66:39:69\n  TRACK 19 AUDIO\n    TITLE  Erasure - Stop! (12 inch remix) \n    INDEX 01 70:26:46\n  TRACK 20 AUDIO\n    TITLE  Front 242 - Never stop! (V1.1) \n    INDEX 01 75:25:09\n","torrent":{"xt":"urn:btih:923fc43df2ecbfe54efaa8d25ffbfe233ed3cadf","amp;dn":"DJ+CoNE+-+Ataque+Ochentoso+Vol+4","amp;tr":["udp%3A%2F%2Ftracker.openbittorrent.com%3A80","udp%3A%2F%2Fopen.demonii.com%3A1337","udp%3A%2F%2Ftracker.coppersurfer.tk%3A6969","udp%3A%2F%2Fexodus.desync.com%3A6969"],"infoHash":"923fc43df2ecbfe54efaa8d25ffbfe233ed3cadf","infoHashBuffer":{"type":"Buffer","data":[146,63,196,61,242,236,191,229,78,250,168,210,95,251,254,35,62,211,202,223]},"announce":[],"urlList":[]}}